# xmcd
#
# Track frame offsets:
#	150
#	11039
#	21940
#	43206
#	58047
#	72935
#	86114
#	101865
#	112228
#	126189
#	142826
#	154766
#	158938
#	170178
#	179550
#	188258
#	198075
#	218126
#
# Disc length: 3054 seconds
#
# Revision: 0
# Processed by: cddbd v1.5.2PL0 Copyright (c) Steve Scherf et al.
# Submitted via: EasyCDDAExtractor 2010.6.0.0
#
DISCID=080bec12
DTITLE=Rolf Harris - The platinum Collection
DYEAR=1900
DGENRE=Vocal
TTITLE0=Sun Arise
TTITLE1=Sydney Town
TTITLE2=Raining On The Rock
TTITLE3=Brindabella Morning
TTITLE4=Indian Pacific
TTITLE5=A Pub With No Beer
TTITLE6=Duncan (With Slim Dusty)
TTITLE7=Bontany Bay
TTITLE8=Click Go The Shears
TTITLE9=Walzing Matilda
TTITLE10=The Wild Colonial Boy
TTITLE11=Alomg The Road To Gundagui
TTITLE12=The Overlander
TTITLE13=The Wild Rover 
TTITLE14=Carra Barra Wirra Canna
TTITLE15=That's What They Call The Didgeridoo
TTITLE16=Letter To Narelle
TTITLE17=I've Been Everywhere
EXTD=
EXTT0=
EXTT1=
EXTT2=
EXTT3=
EXTT4=
EXTT5=
EXTT6=
EXTT7=
EXTT8=
EXTT9=
EXTT10=
EXTT11=
EXTT12=
EXTT13=
EXTT14=
EXTT15=
EXTT16=
EXTT17=
PLAYORDER=
